<?xml version="1.0" encoding="UTF-8" standalone="no"?>
<!-- Created with Inkscape (http://www.inkscape.org/) -->

<svg
   xmlns:dc="http://purl.org/dc/elements/1.1/"
   xmlns:cc="http://creativecommons.org/ns#"
   xmlns:rdf="http://www.w3.org/1999/02/22-rdf-syntax-ns#"
   xmlns:svg="http://www.w3.org/2000/svg"
   xmlns="http://www.w3.org/2000/svg"
   xmlns:sodipodi="http://sodipodi.sourceforge.net/DTD/sodipodi-0.dtd"
   xmlns:inkscape="http://www.inkscape.org/namespaces/inkscape"
   width="210mm"
   height="297mm"
   viewBox="0 0 210 297"
   version="1.1"
   id="svg8"
   inkscape:version="0.92.1 r15371"
   sodipodi:docname="accounticon.svg">
  <defs
     id="defs2" />
  <sodipodi:namedview
     id="base"
     pagecolor="#ffffff"
     bordercolor="#666666"
     borderopacity="1.0"
     inkscape:pageopacity="0.0"
     inkscape:pageshadow="2"
     inkscape:zoom="0.41157407"
     inkscape:cx="396.85039"
     inkscape:cy="561.25984"
     inkscape:document-units="mm"
     inkscape:current-layer="layer1"
     showgrid="false"
     showborder="true"
     inkscape:object-paths="true"
     inkscape:snap-smooth-nodes="false"
     inkscape:snap-intersection-paths="false"
     inkscape:object-nodes="false"
     inkscape:window-width="1366"
     inkscape:window-height="705"
     inkscape:window-x="-8"
     inkscape:window-y="-8"
     inkscape:window-maximized="1"
     inkscape:showpageshadow="false" />
  <metadata
     id="metadata5">
    <rdf:RDF>
      <cc:Work
         rdf:about="">
        <dc:format>image/svg+xml</dc:format>
        <dc:type
           rdf:resource="http://purl.org/dc/dcmitype/StillImage" />
        <dc:title />
      </cc:Work>
    </rdf:RDF>
  </metadata>
  <g
     inkscape:label="Layer 1"
     inkscape:groupmode="layer"
     id="layer1">
    <path
       style="opacity:1;fill:#000000;fill-opacity:1;fill-rule:evenodd;stroke:none;stroke-width:1.2216841;stroke-linecap:round;stroke-linejoin:miter;stroke-miterlimit:4;stroke-dasharray:none;stroke-dashoffset:0;stroke-opacity:1;paint-order:fill markers stroke"
       d="M 104.25255,73.564666 A 33.324638,36.025298 0 0 0 73.677155,97.283115 33.324638,36.025298 0 0 0 93.597388,143.43172 l 0.108518,0.0424 A 33.324638,36.025298 0 0 0 136.34258,121.8196 33.324638,36.025298 0 0 0 116.34845,75.708723 33.324638,36.025298 0 0 0 104.25255,73.564666 Z M 81.029161,140.07947 c -21.609767,7.20284 -39.288736,23.92775 -47.337678,46.09073 -1.517941,4.20283 -2.661677,8.53154 -3.41788,12.93564 l 0.08372,24.32358 149.369177,0.015 -0.0372,-24.33856 c -4.63555,-26.80597 -23.26557,-49.07969 -48.8301,-58.38042 -0.56405,-0.20429 -1.13044,-0.40153 -1.6986,-0.59221 -3.77126,3.50376 -8.27498,6.22885 -13.41985,7.81141 -12.17384,4.33436 -25.322196,0.40111 -34.711576,-7.86515 z"
       id="path4485"
       inkscape:connector-curvature="0"
       inkscape:export-xdpi="6.7783566"
       inkscape:export-ydpi="6.7783566" />
  </g>
</svg>
