<?xml version="1.0" encoding="UTF-8" standalone="no"?>
<!-- Created with Inkscape (http://www.inkscape.org/) -->

<svg
   xmlns:dc="http://purl.org/dc/elements/1.1/"
   xmlns:cc="http://creativecommons.org/ns#"
   xmlns:rdf="http://www.w3.org/1999/02/22-rdf-syntax-ns#"
   xmlns:svg="http://www.w3.org/2000/svg"
   xmlns="http://www.w3.org/2000/svg"
   xmlns:sodipodi="http://sodipodi.sourceforge.net/DTD/sodipodi-0.dtd"
   xmlns:inkscape="http://www.inkscape.org/namespaces/inkscape"
   width="210mm"
   height="297mm"
   viewBox="0 0 210 297"
   version="1.1"
   id="svg8"
   inkscape:version="0.92.1 r15371"
   sodipodi:docname="searchicon.svg">
  <defs
     id="defs2" />
  <sodipodi:namedview
     id="base"
     pagecolor="#ffffff"
     bordercolor="#666666"
     borderopacity="1.0"
     inkscape:pageopacity="0.0"
     inkscape:pageshadow="2"
     inkscape:zoom="0.43866925"
     inkscape:cx="6.1744296"
     inkscape:cy="523.5391"
     inkscape:document-units="mm"
     inkscape:current-layer="layer1"
     showgrid="false"
     showborder="true"
     inkscape:window-width="1366"
     inkscape:window-height="705"
     inkscape:window-x="-8"
     inkscape:window-y="-8"
     inkscape:window-maximized="1" />
  <metadata
     id="metadata5">
    <rdf:RDF>
      <cc:Work
         rdf:about="">
        <dc:format>image/svg+xml</dc:format>
        <dc:type
           rdf:resource="http://purl.org/dc/dcmitype/StillImage" />
        <dc:title />
      </cc:Work>
    </rdf:RDF>
  </metadata>
  <g
     inkscape:label="Layer 1"
     inkscape:groupmode="layer"
     id="layer1">
    <path
       style="opacity:1;fill:#000000;fill-opacity:1;fill-rule:evenodd;stroke:none;stroke-width:37.77499771;stroke-linecap:round;stroke-linejoin:miter;stroke-miterlimit:4;stroke-dasharray:none;stroke-dashoffset:0;stroke-opacity:1;paint-order:fill markers stroke"
       d="m 89.799733,35.118769 a 70.568541,70.568541 0 0 0 -64.746436,46.461764 70.568541,70.568541 0 0 0 42.18347,90.398097 l 0.229444,0.0832 a 70.568541,70.568541 0 0 0 51.340539,-1.46555 l 49.62849,85.95806 c 3.00035,5.19675 9.72569,6.89216 15.07918,3.80132 5.35351,-3.09085 7.24763,-9.76254 4.24729,-14.95929 l -50.0171,-86.63244 A 70.568541,70.568541 0 0 0 157.75424,129.64426 70.568541,70.568541 0 0 0 115.41471,39.31903 70.568541,70.568541 0 0 0 89.799733,35.118769 Z m 0.500745,22.311299 a 48.251993,48.251993 0 0 1 17.514692,2.871661 48.251993,48.251993 0 0 1 28.95017,61.760561 48.251993,48.251993 0 0 1 -61.735765,29.00392 l -0.156581,-0.0569 A 48.251993,48.251993 0 0 1 46.029278,89.198673 48.251993,48.251993 0 0 1 90.300478,57.430068 Z"
       id="path4491"
       inkscape:connector-curvature="0" />
  </g>
</svg>
