<?xml version="1.0" encoding="UTF-8" standalone="no"?>
<!-- Created with Inkscape (http://www.inkscape.org/) -->

<svg
   xmlns:dc="http://purl.org/dc/elements/1.1/"
   xmlns:cc="http://creativecommons.org/ns#"
   xmlns:rdf="http://www.w3.org/1999/02/22-rdf-syntax-ns#"
   xmlns:svg="http://www.w3.org/2000/svg"
   xmlns="http://www.w3.org/2000/svg"
   xmlns:sodipodi="http://sodipodi.sourceforge.net/DTD/sodipodi-0.dtd"
   xmlns:inkscape="http://www.inkscape.org/namespaces/inkscape"
   width="210mm"
   height="297mm"
   viewBox="0 0 210 297"
   version="1.1"
   id="svg8"
   inkscape:version="0.92.1 r15371"
   sodipodi:docname="size-chart-s.svg">
  <defs
     id="defs2" />
  <sodipodi:namedview
     id="base"
     pagecolor="#ffffff"
     bordercolor="#666666"
     borderopacity="1.0"
     inkscape:pageopacity="0.0"
     inkscape:pageshadow="2"
     inkscape:zoom="0.65898437"
     inkscape:cx="391.57079"
     inkscape:cy="560"
     inkscape:document-units="mm"
     inkscape:current-layer="layer1"
     showgrid="false"
     inkscape:window-width="1366"
     inkscape:window-height="705"
     inkscape:window-x="-8"
     inkscape:window-y="-8"
     inkscape:window-maximized="1" />
  <metadata
     id="metadata5">
    <rdf:RDF>
      <cc:Work
         rdf:about="">
        <dc:format>image/svg+xml</dc:format>
        <dc:type
           rdf:resource="http://purl.org/dc/dcmitype/StillImage" />
        <dc:title></dc:title>
      </cc:Work>
    </rdf:RDF>
  </metadata>
  <g
     inkscape:label="Layer 1"
     inkscape:groupmode="layer"
     id="layer1">
    <g
       id="g4511">
      <path
         d="M 51.305179,168.90645 A 40.150169,40.150169 0 0 1 27.304759,117.4743 40.150169,40.150169 0 0 1 78.71616,93.429453 40.150169,40.150169 0 0 1 102.80541,144.82006 40.150169,40.150169 0 0 1 51.435637,168.9537"
         sodipodi:open="true"
         sodipodi:end="1.9165635"
         sodipodi:start="1.9200193"
         sodipodi:ry="40.150169"
         sodipodi:rx="40.150169"
         sodipodi:cy="131.17979"
         sodipodi:cx="65.043274"
         sodipodi:type="arc"
         id="path4485"
         style="opacity:1;fill:none;fill-opacity:1;fill-rule:evenodd;stroke:#000000;stroke-width:4.57499981;stroke-linecap:round;stroke-linejoin:miter;stroke-miterlimit:4;stroke-dasharray:none;stroke-dashoffset:0;stroke-opacity:1;paint-order:fill markers stroke" />
      <text
         id="text4489"
         y="157.21565"
         x="41.243618"
         style="font-style:normal;font-variant:normal;font-weight:normal;font-stretch:normal;font-size:74.3449707px;line-height:125%;font-family:'Gotham Book';-inkscape-font-specification:'Gotham Book, Normal';font-variant-ligatures:normal;font-variant-caps:normal;font-variant-numeric:normal;font-feature-settings:normal;text-align:start;letter-spacing:0px;word-spacing:0px;writing-mode:lr-tb;text-anchor:start;fill:#000000;fill-opacity:1;stroke:none;stroke-width:0.7744267px;stroke-linecap:butt;stroke-linejoin:miter;stroke-opacity:1"
         xml:space="preserve"><tspan
           style="font-style:normal;font-variant:normal;font-weight:normal;font-stretch:normal;font-size:74.3449707px;font-family:'Gotham Book';-inkscape-font-specification:'Gotham Book, Normal';font-variant-ligatures:normal;font-variant-caps:normal;font-variant-numeric:normal;font-feature-settings:normal;text-align:start;writing-mode:lr-tb;text-anchor:start;stroke-width:0.7744267px"
           y="157.21565"
           x="41.243618"
           id="tspan4487"
           sodipodi:role="line">S</tspan></text>
    </g>
    <g
       id="g4506">
      <path
         inkscape:connector-curvature="0"
         id="path4491"
         d="m 144.29489,171.54732 a 42.960681,42.960681 0 0 1 -25.68045,-55.0324 42.960681,42.960681 0 0 1 55.01021,-25.72799 42.960681,42.960681 0 0 1 25.7755,54.98795 42.960681,42.960681 0 0 1 -54.96566,25.82299"
         style="opacity:1;fill:#000000;fill-opacity:1;fill-rule:evenodd;stroke:none;stroke-width:4.89524984;stroke-linecap:round;stroke-linejoin:miter;stroke-miterlimit:4;stroke-dasharray:none;stroke-dashoffset:0;stroke-opacity:1;paint-order:fill markers stroke" />
      <g
         id="text4495"
         style="font-style:normal;font-variant:normal;font-weight:normal;font-stretch:normal;font-size:74.3449707px;line-height:125%;font-family:'Gotham Book';-inkscape-font-specification:'Gotham Book, Normal';font-variant-ligatures:normal;font-variant-caps:normal;font-variant-numeric:normal;font-feature-settings:normal;text-align:start;letter-spacing:0px;word-spacing:0px;writing-mode:lr-tb;text-anchor:start;fill:#ffffff;fill-opacity:1;stroke:none;stroke-width:0.7744267px;stroke-linecap:butt;stroke-linejoin:miter;stroke-opacity:1"
         aria-label="S">
        <path
           id="path4498"
           style="font-style:normal;font-variant:normal;font-weight:normal;font-stretch:normal;font-size:74.3449707px;font-family:'Gotham Book';-inkscape-font-specification:'Gotham Book, Normal';font-variant-ligatures:normal;font-variant-caps:normal;font-variant-numeric:normal;font-feature-settings:normal;text-align:start;writing-mode:lr-tb;text-anchor:start;fill:#ffffff;stroke-width:0.7744267px"
           d="m 160.63819,157.9591 q -6.24498,0 -11.44913,-2.00731 -5.1298,-2.08166 -9.81353,-6.31932 l 3.6429,-4.31201 q 4.08897,3.71725 8.25229,5.57587 4.16332,1.78428 9.5905,1.78428 5.27849,0 8.40098,-2.45338 3.19684,-2.52773 3.19684,-6.39367 v -0.14869 q 0,-1.78428 -0.59476,-3.19684 -0.59476,-1.4869 -2.08166,-2.67641 -1.4869,-1.18952 -4.16332,-2.15601 -2.60207,-0.96648 -6.69105,-1.85862 -4.4607,-0.96649 -7.80622,-2.23035 -3.27118,-1.26387 -5.42718,-3.04815 -2.15601,-1.78428 -3.19684,-4.16331 -1.04083,-2.37904 -1.04083,-5.57588 v -0.14869 q 0,-3.04814 1.26387,-5.65022 1.26386,-2.60207 3.56856,-4.46069 2.30469,-1.93297 5.42718,-2.9738 3.12249,-1.11518 6.83974,-1.11518 5.72456,0 9.96222,1.63559 4.31201,1.56125 8.32664,4.75808 l -3.41987,4.53504 q -3.6429,-2.97379 -7.36015,-4.312 -3.6429,-1.33821 -7.65753,-1.33821 -5.12981,0 -8.1036,2.45338 -2.9738,2.37904 -2.9738,5.9476 v 0.14869 q 0,1.85862 0.59476,3.34552 0.59476,1.41256 2.156,2.67642 1.56125,1.18952 4.31201,2.23035 2.75076,0.96648 7.06277,1.85862 8.69836,1.93297 12.78734,5.35284 4.16331,3.41987 4.16331,9.36747 v 0.14869 q 0,3.34552 -1.3382,6.09629 -1.33821,2.67641 -3.71725,4.60938 -2.3047,1.93297 -5.57588,2.9738 -3.27117,1.04083 -7.13711,1.04083 z" />
      </g>
    </g>
  </g>
</svg>
